<svg id="Layer_1" data-name="Layer 1" xmlns="http://www.w3.org/2000/svg" viewBox="0 0 322.52 153.27"><defs><style>.cls-1,.cls-3{fill:#fff;}.cls-2,.cls-4{fill:#71c8b8;}.cls-3,.cls-4{font-size:51.68px;font-family:VAGRundschriftD, VAG Rundschrift D;}.cls-5{fill:none;}</style></defs><path class="cls-1" d="M230,83c-17.78-17.91-25.58-47-26-48.6a79.58,79.58,0,0,1-1.68-7.87c0-.1-.11-.94-.35-2.05a6,6,0,0,0-.83-2.32,4.39,4.39,0,0,0-2.51-1.69,3.14,3.14,0,0,0-2.1.36c-5,2.51-9.62,16.49-9.62,16.49-.71,2.14-1.09,3.3-1.59,5.1a84.63,84.63,0,0,0-3,20.3,70.71,70.71,0,0,0,70.72,70.71c.74,0,1.48,0,2.21,0a56.11,56.11,0,0,0,11.56-.78A64.6,64.6,0,0,0,285.46,126a63.76,63.76,0,0,0,8-5.29,71.06,71.06,0,0,0,15.36-14.52l1.12-1.47-.2-.26c-3.87.58-51.32,7.07-79.73-21.55"/><path class="cls-2" d="M321.64,51.23c-.12-.82-.44-2.38-1.07-5.48a24.28,24.28,0,0,0-1.05-3.65,5.39,5.39,0,0,0-1.35-2.16,3.23,3.23,0,0,0-2.26-1,3.91,3.91,0,0,0-2.6,1.19c-.77.7-1.33,2.74-1.78,3.82a58.86,58.86,0,0,1-3.38,6.27c-3.2,5.12-5.8,8.35-8.06,10.42-3.92,4.18-7.71,8.21-13.31,11.88a58.13,58.13,0,0,1-22.4,8.35,61.23,61.23,0,0,1-30.81-2.2l.37.39c11,11,26.38,17.82,45.78,20.12A118.73,118.73,0,0,0,308.9,99l4.89-.88s.63-1.12.93-1.69a70,70,0,0,0,7-20.52,90,90,0,0,0-.09-24.68"/><text class="cls-3" transform="translate(0 43.3)">pr</text><text class="cls-3" transform="translate(46.71 43.3)">et</text><text class="cls-3" transform="translate(92.81 43.3)">ty</text><text class="cls-3" transform="translate(0 91.83)">much</text><text class="cls-4" transform="translate(0 140.35)">no</text><text class="cls-3" transform="translate(55.65 140.35)">mads</text><rect class="cls-5" x="2.22" y="8.16" width="320.3" height="132.74"/></svg>