<svg id="Layer_1" data-name="Layer 1" xmlns="http://www.w3.org/2000/svg" xmlns:xlink="http://www.w3.org/1999/xlink" viewBox="0 0 140.13 113.03"><defs><style>.cls-1{fill:none;}.cls-2{clip-path:url(#clip-path);}.cls-3{fill:#000d20;}.cls-4{fill:#fff;}</style><clipPath id="clip-path"><rect class="cls-1" x="-480.26" y="-1.96" width="320.3" height="132.74"/></clipPath></defs><g class="cls-2"><path class="cls-3" d="M47.6,72.83c-17.77-17.9-25.58-47-26-48.6C20.19,18.32,20,16.36,20,16.36a20.16,20.16,0,0,0-.36-2A6,6,0,0,0,18.78,12a4.39,4.39,0,0,0-2.51-1.69,3.18,3.18,0,0,0-2.11.36c-5,2.51-9.62,16.5-9.62,16.5-.7,2.13-1.08,3.29-1.58,5.09a84.74,84.74,0,0,0-3,20.3,70.71,70.71,0,0,0,70.71,70.72c.75,0,1.49,0,2.22,0a56.11,56.11,0,0,0,11.56-.78,64.77,64.77,0,0,0,18.58-6.52,65.13,65.13,0,0,0,8-5.3,71.29,71.29,0,0,0,15.36-14.52l1.12-1.47-.2-.26C123.47,95,76,101.45,47.6,72.83"/><path class="cls-4" d="M139.24,41.12c-.11-.83-.43-2.39-1.07-5.49a23.39,23.39,0,0,0-1-3.65,5.4,5.4,0,0,0-1.34-2.15,3.26,3.26,0,0,0-2.26-1,3.91,3.91,0,0,0-2.6,1.19c-.77.7-1.33,2.74-1.78,3.82a58.74,58.74,0,0,1-3.38,6.28A50.83,50.83,0,0,1,117.7,50.5c-3.92,4.17-7.71,8.2-13.31,11.87-9.23,6-18.11,7.54-22.4,8.36a61.27,61.27,0,0,1-30.82-2.21l.38.39C62.53,80,77.93,86.74,97.33,89a118.17,118.17,0,0,0,29.18-.15L131.4,88s.63-1.12.92-1.69a69.72,69.72,0,0,0,7-20.52,89.76,89.76,0,0,0-.1-24.67"/><path class="cls-3" d="M41.31,70.49c-17.78-17.9-25.58-47-26-48.6A75.75,75.75,0,0,1,13.67,14c0-.1-.11-.94-.36-2a6.22,6.22,0,0,0-.82-2.32A4.42,4.42,0,0,0,10,8a3.14,3.14,0,0,0-2.1.36c-5,2.51-9.62,16.5-9.62,16.5-.71,2.13-1.09,3.29-1.58,5.1a84.63,84.63,0,0,0-3,20.3,70.71,70.71,0,0,0,70.71,70.71c.74,0,1.48,0,2.22,0a56,56,0,0,0,11.55-.77,64.94,64.94,0,0,0,18.58-6.53,62.88,62.88,0,0,0,8-5.3,71.06,71.06,0,0,0,15.36-14.52c.38-.48,1.12-1.47,1.12-1.47l-.19-.26c-3.87.59-51.33,7.08-79.74-21.55"/><path class="cls-4" d="M133,38.78c-.12-.83-.44-2.38-1.07-5.49a23.7,23.7,0,0,0-1-3.65,5.42,5.42,0,0,0-1.35-2.15,3.24,3.24,0,0,0-2.26-1,4,4,0,0,0-2.6,1.2c-.76.69-1.33,2.73-1.77,3.81a56.56,56.56,0,0,1-3.39,6.28c-3.2,5.11-5.79,8.34-8.06,10.42-3.92,4.17-7.71,8.2-13.31,11.87-9.23,6-18.1,7.54-22.4,8.36a61.34,61.34,0,0,1-30.81-2.2c.12.13.25.26.38.38C56.23,77.63,71.63,84.4,91,86.7a118.49,118.49,0,0,0,29.18-.16l4.89-.87s.62-1.12.92-1.69a69.8,69.8,0,0,0,7-20.52A90,90,0,0,0,133,38.78"/></g><path class="cls-3" d="M47.6,62.59c-17.77-17.9-25.58-47-26-48.6A79.8,79.8,0,0,1,20,6.12a20.16,20.16,0,0,0-.36-2,6,6,0,0,0-.82-2.32A4.39,4.39,0,0,0,16.27.06a3.18,3.18,0,0,0-2.11.36c-5,2.51-9.62,16.5-9.62,16.5C3.84,19.05,3.46,20.21,3,22a84.63,84.63,0,0,0-3,20.3A70.71,70.71,0,0,0,70.71,113c.75,0,1.49,0,2.22,0a56.08,56.08,0,0,0,11.56-.77,64.94,64.94,0,0,0,18.58-6.53,62.88,62.88,0,0,0,8-5.3,71.29,71.29,0,0,0,15.36-14.52c.38-.48,1.12-1.47,1.12-1.47l-.2-.26c-3.87.59-51.32,7.08-79.74-21.55"/><path class="cls-4" d="M139.24,30.88c-.11-.83-.43-2.38-1.07-5.49a23.39,23.39,0,0,0-1-3.65,5.4,5.4,0,0,0-1.34-2.15,3.26,3.26,0,0,0-2.26-1,4,4,0,0,0-2.6,1.2c-.77.69-1.33,2.73-1.78,3.81a57.78,57.78,0,0,1-3.38,6.28,50.83,50.83,0,0,1-8.06,10.42c-3.92,4.17-7.71,8.2-13.31,11.87-9.23,6-18.11,7.54-22.4,8.36a61.39,61.39,0,0,1-30.82-2.2l.38.38c11,11.06,26.38,17.83,45.78,20.13a118.46,118.46,0,0,0,29.18-.16l4.89-.88s.63-1.11.92-1.68a69.82,69.82,0,0,0,7-20.52,89.82,89.82,0,0,0-.1-24.68"/></svg>