<svg id="Layer_1" data-name="Layer 1" xmlns="http://www.w3.org/2000/svg" viewBox="0 0 450.66 268.23"><defs><style>.cls-1{fill:#17252a;}.cls-12,.cls-2,.cls-4{fill:#fff;}.cls-11,.cls-3{fill:#2ce0c1;}.cls-4{font-size:51.32px;font-family:VAGRundschriftD, VAG Rundschrift D;}.cls-12,.cls-4{letter-spacing:0em;}.cls-5{letter-spacing:-0.01em;}.cls-6{letter-spacing:-0.01em;}.cls-7{letter-spacing:0.02em;}.cls-8{letter-spacing:0.01em;}.cls-9{letter-spacing:0em;}.cls-10,.cls-11{letter-spacing:0em;}</style></defs><rect class="cls-1" x="67.01" y="67.19" width="316.63" height="134.03"/><polygon class="cls-1" points="316.63 0 316.63 0.18 134.03 0.18 134.03 0 0 0 0 268.23 67.01 268.23 134.03 268.23 316.63 268.23 383.64 268.23 450.65 268.23 450.65 0 316.63 0"/><path class="cls-2" d="M292.54,141.42c-17.66-17.79-25.41-46.69-25.79-48.27a76.29,76.29,0,0,1-1.66-7.82c0-.1-.11-.93-.36-2a6,6,0,0,0-.82-2.31,4.37,4.37,0,0,0-2.49-1.68,3.17,3.17,0,0,0-2.09.36c-5,2.5-9.55,16.38-9.55,16.38-.71,2.12-1.09,3.27-1.58,5.07a84,84,0,0,0-2.94,20.16,70.22,70.22,0,0,0,70.23,70.22c.74,0,1.47,0,2.2,0a56,56,0,0,0,11.48-.77,64.55,64.55,0,0,0,18.45-6.49,62.3,62.3,0,0,0,7.93-5.26,70.34,70.34,0,0,0,15.26-14.42c.38-.48,1.11-1.46,1.11-1.46l-.19-.25C367.88,163.4,320.76,169.84,292.54,141.42Z"/><path class="cls-3" d="M383.55,109.92c-.12-.82-.44-2.37-1.06-5.45a25.22,25.22,0,0,0-1.05-3.62,5.38,5.38,0,0,0-1.33-2.14,3.21,3.21,0,0,0-2.25-1,3.93,3.93,0,0,0-2.59,1.18c-.75.7-1.31,2.72-1.76,3.79a57.1,57.1,0,0,1-3.36,6.24c-3.18,5.07-5.75,8.28-8,10.34h0c-3.9,4.15-7.66,8.15-13.22,11.8-9.17,6-18,7.48-22.24,8.3a61,61,0,0,1-30.61-2.19l.38.38c10.9,11,26.19,17.7,45.46,20a117.42,117.42,0,0,0,29-.16l4.86-.87s.62-1.11.91-1.68a69,69,0,0,0,7-20.38A89.68,89.68,0,0,0,383.55,109.92Z"/><text class="cls-4" transform="translate(64.13 102.04)">p<tspan class="cls-5" x="28.38" y="0">r</tspan><tspan class="cls-6" x="46.39" y="0">e</tspan><tspan class="cls-7" x="73.03" y="0">t</tspan><tspan class="cls-8" x="92.17" y="0">t</tspan><tspan x="111.05" y="0">y</tspan><tspan x="0" y="48.21">mu</tspan><tspan class="cls-9" x="70.82" y="48.21">c</tspan><tspan class="cls-10" x="94.22" y="48.21">h</tspan><tspan class="cls-11"><tspan x="0" y="96.42">no</tspan><tspan class="cls-12" x="55.27" y="96.42">mads</tspan></tspan></text></svg>