<svg id="Layer_1" data-name="Layer 1" xmlns="http://www.w3.org/2000/svg" viewBox="0 0 139.16 112.25"><defs><style>.cls-1{fill:#17252a;}.cls-2{fill:#fff;}</style></defs><path class="cls-1" d="M47.27,62.16C29.62,44.38,21.87,15.47,21.48,13.9,20.05,8,19.82,6.08,19.82,6.08s-.11-.94-.35-2a6.16,6.16,0,0,0-.82-2.31A4.36,4.36,0,0,0,16.16.06a3.11,3.11,0,0,0-2.09.36C9.1,2.91,4.51,16.8,4.51,16.8c-.7,2.12-1.08,3.27-1.57,5.07A84,84,0,0,0,0,42a70.23,70.23,0,0,0,70.23,70.23c.73,0,1.47,0,2.2,0a55.18,55.18,0,0,0,11.47-.77A64.4,64.4,0,0,0,102.36,105a63,63,0,0,0,7.93-5.26,70.81,70.81,0,0,0,15.26-14.42l1.11-1.46-.2-.26C122.62,84.14,75.49,90.59,47.27,62.16Z"/><path class="cls-2" d="M138.28,30.67c-.11-.82-.43-2.37-1.06-5.46a24.12,24.12,0,0,0-1-3.62,5.36,5.36,0,0,0-1.34-2.14,3.24,3.24,0,0,0-2.24-1A4,4,0,0,0,130,19.61c-.76.69-1.32,2.72-1.76,3.79a58.09,58.09,0,0,1-3.36,6.23,50.43,50.43,0,0,1-8,10.35h0c-3.9,4.15-7.66,8.15-13.22,11.79-9.17,6-18,7.49-22.25,8.3a60.75,60.75,0,0,1-30.6-2.19l.38.39c10.89,11,26.19,17.7,45.46,20a117.13,117.13,0,0,0,29-.15l4.86-.87s.61-1.11.91-1.68a69.35,69.35,0,0,0,7-20.38A89.47,89.47,0,0,0,138.28,30.67Z"/></svg>