<svg id="Layer_1" data-name="Layer 1" xmlns="http://www.w3.org/2000/svg" viewBox="0 0 320.3 152.23"><defs><style>.cls-1,.cls-2,.cls-3{fill:#fff;}.cls-1,.cls-10{opacity:0.5;}.cls-3{font-size:51.32px;font-family:VAGRundschriftD, VAG Rundschrift D;}.cls-11,.cls-3{letter-spacing:0em;}.cls-4{letter-spacing:-0.01em;}.cls-5{letter-spacing:-0.01em;}.cls-6{letter-spacing:0.02em;}.cls-7{letter-spacing:0.01em;}.cls-8{letter-spacing:0em;}.cls-9{letter-spacing:0em;}</style></defs><path class="cls-1" d="M228.41,82.15C210.76,64.37,203,35.46,202.62,33.88,201.19,28,201,26.07,201,26.07s-.11-.94-.35-2a6,6,0,0,0-.82-2.3,4.39,4.39,0,0,0-2.5-1.68,3.13,3.13,0,0,0-2.09.36c-5,2.49-9.55,16.38-9.55,16.38-.7,2.12-1.08,3.27-1.57,5.06A84,84,0,0,0,181.14,62a70.22,70.22,0,0,0,70.22,70.23c.74,0,1.47,0,2.21,0a55.88,55.88,0,0,0,11.47-.77,64.11,64.11,0,0,0,18.45-6.49,62.1,62.1,0,0,0,7.94-5.25,70.53,70.53,0,0,0,15.25-14.42l1.12-1.46-.2-.26C303.76,104.13,256.63,110.57,228.41,82.15Z"/><path class="cls-2" d="M319.42,50.65c-.11-.82-.43-2.36-1.06-5.45a23.79,23.79,0,0,0-1-3.62A5.41,5.41,0,0,0,316,39.44a3.2,3.2,0,0,0-2.24-1,3.9,3.9,0,0,0-2.59,1.19c-.76.69-1.32,2.71-1.76,3.79A59.08,59.08,0,0,1,306,49.62c-3.18,5.07-5.76,8.29-8,10.35h0c-3.89,4.14-7.66,8.15-13.22,11.79a57.79,57.79,0,0,1-22.24,8.3A60.85,60.85,0,0,1,232,77.87l.37.39c10.9,11,26.2,17.7,45.47,20a118.27,118.27,0,0,0,29-.15l4.85-.87s.62-1.12.92-1.68a69.45,69.45,0,0,0,7-20.38A89.53,89.53,0,0,0,319.42,50.65Z"/><text class="cls-3" transform="translate(0 42.77)">p<tspan class="cls-4" x="28.38" y="0">r</tspan><tspan class="cls-5" x="46.39" y="0">e</tspan><tspan class="cls-6" x="73.03" y="0">t</tspan><tspan class="cls-7" x="92.17" y="0">t</tspan><tspan x="111.05" y="0">y</tspan><tspan x="0" y="48.21">mu</tspan><tspan class="cls-8" x="70.82" y="48.21">c</tspan><tspan class="cls-9" x="94.22" y="48.21">h</tspan><tspan class="cls-9"><tspan class="cls-10" x="0" y="96.42">no</tspan><tspan class="cls-11" x="55.27" y="96.42">mads</tspan></tspan></text></svg>