<svg id="Layer_1" data-name="Layer 1" xmlns="http://www.w3.org/2000/svg" viewBox="0 0 139.16 112.25"><defs><style>.cls-1{fill:#fff;}.cls-2{fill:#2ce0c1;}</style></defs><path class="cls-1" d="M47.27,62.16C29.62,44.38,21.87,15.47,21.48,13.9,20.05,8,19.82,6.08,19.82,6.08s-.11-.94-.35-2a6.16,6.16,0,0,0-.82-2.31A4.36,4.36,0,0,0,16.16.06a3.11,3.11,0,0,0-2.09.36C9.1,2.91,4.51,16.8,4.51,16.8c-.7,2.12-1.08,3.27-1.57,5.07A84,84,0,0,0,0,42a70.23,70.23,0,0,0,70.23,70.23c.73,0,1.47,0,2.2,0a55.18,55.18,0,0,0,11.47-.77A64.4,64.4,0,0,0,102.36,105a63,63,0,0,0,7.93-5.26,70.81,70.81,0,0,0,15.26-14.42l1.11-1.46-.2-.26C122.62,84.14,75.49,90.59,47.27,62.16Z"/><path class="cls-2" d="M138.28,30.76c-.12-.83-.44-2.38-1.07-5.49a24.28,24.28,0,0,0-1.05-3.65,5.39,5.39,0,0,0-1.35-2.16,3.24,3.24,0,0,0-2.26-1,4,4,0,0,0-2.61,1.2c-.76.7-1.33,2.74-1.77,3.82a57.48,57.48,0,0,1-3.39,6.28c-3.2,5.11-5.8,8.35-8.06,10.42h0C112.79,44.32,109,48.36,103.4,52c-9.24,6-18.12,7.55-22.41,8.37a61.34,61.34,0,0,1-30.84-2.21l.38.39c11,11.06,26.39,17.84,45.81,20.14a118.68,118.68,0,0,0,29.2-.16l4.89-.88s.62-1.12.92-1.69a69.69,69.69,0,0,0,7-20.53A90.1,90.1,0,0,0,138.28,30.76Z"/></svg>