<svg id="Layer_1" data-name="Layer 1" xmlns="http://www.w3.org/2000/svg" xmlns:xlink="http://www.w3.org/1999/xlink" viewBox="0 0 140.13 113.03"><defs><style>.cls-1{fill:none;}.cls-2{clip-path:url(#clip-path);}.cls-3{fill:#000d20;}.cls-4{fill:#71c8b8;}</style><clipPath id="clip-path"><rect class="cls-1" x="-480.26" y="-11.96" width="320.3" height="132.74"/></clipPath></defs><g class="cls-2"><path class="cls-3" d="M49,62.83c-17.77-17.9-25.58-47-26-48.6-1.44-5.91-1.67-7.87-1.67-7.87A17.85,17.85,0,0,0,21,4.31,5.94,5.94,0,0,0,20.17,2,4.38,4.38,0,0,0,17.66.3a3.17,3.17,0,0,0-2.11.36c-5,2.51-9.62,16.5-9.62,16.5-.7,2.13-1.09,3.29-1.58,5.09a84.5,84.5,0,0,0-3,20.3,70.71,70.71,0,0,0,70.7,70.72h2.27a56,56,0,0,0,11.56-.78A64.55,64.55,0,0,0,104.46,106a63.63,63.63,0,0,0,8-5.29,71.27,71.27,0,0,0,15.36-14.52l1.12-1.47-.2-.26c-3.88.58-51.33,7-79.74-21.59"/><path class="cls-4" d="M140.63,31.12c-.11-.83-.43-2.39-1.07-5.49A22.84,22.84,0,0,0,138.51,22a5.4,5.4,0,0,0-1.34-2.16,3.34,3.34,0,0,0-2.26-1A4,4,0,0,0,132.3,20c-.76.7-1.32,2.74-1.77,3.82a59.09,59.09,0,0,1-3.38,6.27,50.66,50.66,0,0,1-8.06,10.43c-3.93,4.17-7.71,8.2-13.31,11.87a59.11,59.11,0,0,1-22.4,8.36,61.46,61.46,0,0,1-30.82-2.21l.38.39C63.92,70,79.32,76.74,98.72,79a117.74,117.74,0,0,0,29.18-.15l4.89-.88s.62-1.12.92-1.69a69.72,69.72,0,0,0,7-20.52,90.19,90.19,0,0,0-.1-24.67"/><path class="cls-3" d="M66.15,62.83c-17.77-17.9-25.58-47-26-48.6-1.44-5.91-1.67-7.87-1.67-7.87a18,18,0,0,0-.36-2.05A5.93,5.93,0,0,0,37.33,2,4.38,4.38,0,0,0,34.82.3a3.17,3.17,0,0,0-2.11.36c-5,2.51-9.61,16.5-9.61,16.5-.71,2.13-1.09,3.29-1.59,5.09a84.5,84.5,0,0,0-3,20.3,70.71,70.71,0,0,0,70.7,70.72h2.23a56,56,0,0,0,11.56-.78A64.55,64.55,0,0,0,121.58,106a63.63,63.63,0,0,0,8-5.29A71.28,71.28,0,0,0,145,86.11l1.12-1.47-.2-.26C142,85,94.57,91.45,66.15,62.83"/><path class="cls-4" d="M157.79,31.12c-.11-.83-.43-2.39-1.07-5.49a24.34,24.34,0,0,0-1-3.65,5.68,5.68,0,0,0-1.35-2.16,3.28,3.28,0,0,0-2.26-1,3.9,3.9,0,0,0-2.6,1.19c-.77.7-1.33,2.74-1.78,3.82a59.09,59.09,0,0,1-3.38,6.27,50.66,50.66,0,0,1-8.06,10.43c-3.92,4.17-7.71,8.2-13.31,11.87a59.05,59.05,0,0,1-22.4,8.36,61.46,61.46,0,0,1-30.82-2.21l.38.39C81.08,70,96.48,76.74,115.88,79a117.74,117.74,0,0,0,29.18-.15L150,78s.63-1.12.92-1.69a69.72,69.72,0,0,0,7-20.52,89.8,89.8,0,0,0-.1-24.67"/></g><path class="cls-4" d="M47.68,62.81c-17.78-17.91-25.58-47-26-48.6C21,11.62,20.43,9,20,6.34a18.64,18.64,0,0,0-.35-2A6,6,0,0,0,18.82,2,4.42,4.42,0,0,0,16.31.28a3.2,3.2,0,0,0-2.1.36c-5,2.51-9.62,16.49-9.62,16.49-.71,2.14-1.09,3.3-1.59,5.1a84.5,84.5,0,0,0-3,20.3,70.72,70.72,0,0,0,70.72,70.72h2.21a56,56,0,0,0,11.56-.78,64.27,64.27,0,0,0,18.65-6.66,61.51,61.51,0,0,0,8-5.29A70.8,70.8,0,0,0,126.5,86l1.12-1.47-.2-.26c-3.87.58-51.32,7.07-79.73-21.55"/><path class="cls-3" d="M139.25,31.05c-.12-.83-.44-2.39-1.07-5.49a25.77,25.77,0,0,0-1.05-3.65,5.68,5.68,0,0,0-1.35-2.16,3.34,3.34,0,0,0-2.26-1,3.92,3.92,0,0,0-2.6,1.19c-.77.7-1.33,2.74-1.78,3.82A58.13,58.13,0,0,1,125.76,30c-3.2,5.12-5.8,8.35-8.06,10.42-3.92,4.18-7.71,8.21-13.31,11.88A58.07,58.07,0,0,1,82,60.68a61.07,61.07,0,0,1-30.81-2.2l.37.39C62.55,69.93,77.93,76.69,97.33,79a117.74,117.74,0,0,0,29.18-.18l4.89-.88s.63-1.12.93-1.69a70.2,70.2,0,0,0,7-20.52,90.12,90.12,0,0,0-.09-24.66"/></svg>