<svg id="Layer_1" data-name="Layer 1" xmlns="http://www.w3.org/2000/svg" viewBox="0 0 268.28 268.23"><defs><style>.cls-1{fill:#2ce0c1;}.cls-2{fill:#17252a;}.cls-3{fill:#fff;}</style></defs><rect class="cls-1" width="268.28" height="268.28"/><path class="cls-2" d="M112.41,141.42C94.76,123.63,87,94.73,86.62,93.15,85.19,87.28,85,85.33,85,85.33s-.11-.93-.35-2A6.16,6.16,0,0,0,83.79,81a4.44,4.44,0,0,0-2.49-1.68,3.21,3.21,0,0,0-2.1.36c-5,2.5-9.55,16.38-9.55,16.38-.7,2.12-1.08,3.27-1.57,5.07a84,84,0,0,0-2.94,20.16,70.22,70.22,0,0,0,70.22,70.22c.74,0,1.47,0,2.21,0A55.88,55.88,0,0,0,149,190.7a64.45,64.45,0,0,0,18.45-6.49,62.32,62.32,0,0,0,7.94-5.26,70.29,70.29,0,0,0,15.25-14.42c.38-.48,1.12-1.46,1.12-1.46l-.2-.25C187.76,163.4,140.63,169.84,112.41,141.42Z"/><path class="cls-3" d="M203.42,109.92c-.11-.82-.43-2.37-1.06-5.45a23.47,23.47,0,0,0-1-3.62A5.41,5.41,0,0,0,200,98.71a3.16,3.16,0,0,0-2.24-1,3.91,3.91,0,0,0-2.59,1.18c-.76.7-1.32,2.72-1.76,3.79a59,59,0,0,1-3.36,6.24c-3.18,5.07-5.76,8.28-8,10.34h0c-3.89,4.15-7.66,8.15-13.22,11.8-9.16,6-18,7.48-22.24,8.3a61,61,0,0,1-30.6-2.19l.37.38c10.9,11,26.2,17.7,45.47,20a117.45,117.45,0,0,0,29-.16l4.85-.87s.62-1.11.92-1.68a69.25,69.25,0,0,0,7-20.38A89.47,89.47,0,0,0,203.42,109.92Z"/></svg>