<svg id="Layer_1" data-name="Layer 1" xmlns="http://www.w3.org/2000/svg" xmlns:xlink="http://www.w3.org/1999/xlink" viewBox="0 0 322.52 153.27"><defs><style>.cls-1{fill:none;}.cls-2{clip-path:url(#clip-path);}.cls-3,.cls-8{fill:#71c8b8;}.cls-4,.cls-5{fill:#000d20;}.cls-5,.cls-8{isolation:isolate;font-size:51.68px;font-family:VAGRundschriftD, VAG Rundschrift D;}.cls-6{letter-spacing:-0.01em;}.cls-7{letter-spacing:0em;}</style><clipPath id="clip-path"><rect class="cls-1" x="2.22" y="8.16" width="320.3" height="132.74"/></clipPath></defs><g class="cls-2"><path class="cls-3" d="M230,83c-17.78-17.91-25.58-47-26-48.6-.69-2.59-1.25-5.22-1.68-7.87a18.64,18.64,0,0,0-.35-2.05,6,6,0,0,0-.83-2.32,4.42,4.42,0,0,0-2.51-1.69,3.14,3.14,0,0,0-2.1.36c-5,2.51-9.62,16.49-9.62,16.49-.71,2.14-1.09,3.3-1.59,5.1a84.5,84.5,0,0,0-3,20.3A70.72,70.72,0,0,0,253,133.44h2.21a56,56,0,0,0,11.56-.78A64.56,64.56,0,0,0,285.46,126a63.63,63.63,0,0,0,8-5.29,71,71,0,0,0,15.36-14.52l1.12-1.47-.2-.26c-3.87.58-51.32,7.07-79.73-21.55"/><path class="cls-4" d="M321.64,51.24c-.12-.83-.44-2.39-1.07-5.49a24.52,24.52,0,0,0-1.05-3.65,5.31,5.31,0,0,0-1.35-2.16,3.22,3.22,0,0,0-2.26-1,3.9,3.9,0,0,0-2.6,1.19c-.77.7-1.33,2.74-1.78,3.82a59.09,59.09,0,0,1-3.38,6.27c-3.2,5.12-5.8,8.35-8.06,10.42-3.92,4.18-7.71,8.21-13.31,11.88a58.07,58.07,0,0,1-22.4,8.35,61.29,61.29,0,0,1-30.81-2.2l.37.39c11,11.06,26.38,17.82,45.78,20.12A117.74,117.74,0,0,0,308.9,99l4.89-.88s.63-1.12.93-1.69a70,70,0,0,0,7-20.52,90.19,90.19,0,0,0-.09-24.67"/><text class="cls-5" transform="translate(0 43.3)">pr</text><text class="cls-5" transform="translate(46.71 43.3)"><tspan class="cls-6">e</tspan><tspan x="26.65" y="0">t</tspan></text><text class="cls-5" transform="translate(92.81 43.3)">ty</text><text class="cls-5" transform="translate(0 91.83)">mu<tspan class="cls-7" x="71.01" y="0">c</tspan><tspan x="94.55" y="0">h</tspan></text><text class="cls-8" transform="translate(0 140.35)">no</text><text class="cls-5" transform="translate(55.65 140.35)">mads</text></g></svg>