<svg id="Layer_1" data-name="Layer 1" xmlns="http://www.w3.org/2000/svg" viewBox="0 0 268.28 268.23"><defs><style>.cls-1{fill:#2ce0c1;}.cls-2{fill:#17252a;}.cls-3{fill:#fff;}</style></defs><rect class="cls-1" y="-0.02" width="268.28" height="268.28"/><polygon class="cls-2" points="188.49 0 188.49 0.18 79.79 0.18 79.79 0 0 0 0 268.23 39.89 268.23 79.79 268.23 188.49 268.23 228.38 268.23 268.28 268.23 268.28 0 188.49 0"/><path class="cls-3" d="M110.16,141.42c-17.65-17.79-25.4-46.69-25.79-48.27a76.29,76.29,0,0,1-1.66-7.82,19.78,19.78,0,0,0-.36-2A6.18,6.18,0,0,0,81.54,81,4.43,4.43,0,0,0,79,79.31a3.18,3.18,0,0,0-2.09.36c-5,2.5-9.55,16.38-9.55,16.38-.7,2.12-1.09,3.27-1.58,5.07a84.31,84.31,0,0,0-2.93,20.16,70.22,70.22,0,0,0,70.22,70.22c.74,0,1.47,0,2.2,0a56,56,0,0,0,11.48-.77,64.55,64.55,0,0,0,18.45-6.49,63,63,0,0,0,7.94-5.26,70.52,70.52,0,0,0,15.25-14.42c.38-.48,1.11-1.46,1.11-1.46l-.19-.25C185.5,163.4,138.38,169.84,110.16,141.42Z"/><path class="cls-1" d="M201.17,109.92c-.12-.82-.43-2.37-1.06-5.45a22.73,22.73,0,0,0-1.05-3.62,5.27,5.27,0,0,0-1.33-2.14,3.19,3.19,0,0,0-2.25-1,3.9,3.9,0,0,0-2.58,1.18c-.76.7-1.32,2.72-1.77,3.79a56.53,56.53,0,0,1-3.35,6.24c-3.18,5.07-5.76,8.28-8,10.34h0c-3.89,4.15-7.66,8.15-13.22,11.8-9.17,6-18,7.48-22.24,8.3a61,61,0,0,1-30.6-2.19c.12.13.24.26.37.38,10.9,11,26.2,17.7,45.46,20a117.42,117.42,0,0,0,29-.16l4.86-.87s.62-1.11.92-1.68a69.23,69.23,0,0,0,7-20.38A89.21,89.21,0,0,0,201.17,109.92Z"/></svg>