<svg id="Layer_1" data-name="Layer 1" xmlns="http://www.w3.org/2000/svg" viewBox="0 0 450.66 268.23"><defs><style>.cls-1{fill:#2ce0c1;}.cls-12,.cls-2,.cls-4{fill:#17252a;}.cls-11,.cls-3{fill:#fff;}.cls-4{font-size:51.32px;font-family:VAGRundschriftD, VAG Rundschrift D;}.cls-12,.cls-4{letter-spacing:0em;}.cls-5{letter-spacing:-0.01em;}.cls-6{letter-spacing:-0.01em;}.cls-7{letter-spacing:0.02em;}.cls-8{letter-spacing:0.01em;}.cls-9{letter-spacing:0em;}.cls-10,.cls-11{letter-spacing:0em;}</style></defs><polygon class="cls-1" points="316.63 0 316.63 0.18 134.03 0.18 134.03 0 0 0 0 268.23 67.01 268.23 134.03 268.23 316.63 268.23 383.64 268.23 450.65 268.23 450.65 0 316.63 0"/><path class="cls-2" d="M294.79,141.42c-17.65-17.79-25.4-46.69-25.79-48.27a76.29,76.29,0,0,1-1.66-7.82,19.78,19.78,0,0,0-.36-2,6,6,0,0,0-.81-2.31,4.43,4.43,0,0,0-2.5-1.68,3.18,3.18,0,0,0-2.09.36c-5,2.5-9.55,16.38-9.55,16.38-.7,2.12-1.08,3.27-1.57,5.07a84,84,0,0,0-2.94,20.16,70.22,70.22,0,0,0,70.22,70.22c.74,0,1.47,0,2.2,0a56,56,0,0,0,11.48-.77,64.55,64.55,0,0,0,18.45-6.49,62.32,62.32,0,0,0,7.94-5.26,70.29,70.29,0,0,0,15.25-14.42c.38-.48,1.11-1.46,1.11-1.46l-.19-.25C370.13,163.4,323,169.84,294.79,141.42Z"/><path class="cls-3" d="M385.8,109.92c-.12-.82-.43-2.37-1.06-5.45a23.47,23.47,0,0,0-1-3.62,5.41,5.41,0,0,0-1.34-2.14,3.19,3.19,0,0,0-2.25-1,3.9,3.9,0,0,0-2.58,1.18c-.76.7-1.32,2.72-1.77,3.79a56.53,56.53,0,0,1-3.35,6.24c-3.18,5.07-5.76,8.28-8,10.34h0c-3.89,4.15-7.66,8.15-13.22,11.8-9.16,6-18,7.48-22.24,8.3a61,61,0,0,1-30.6-2.19l.37.38c10.9,11,26.2,17.7,45.47,20a117.45,117.45,0,0,0,29-.16l4.85-.87s.62-1.11.92-1.68a69,69,0,0,0,7-20.38A89.21,89.21,0,0,0,385.8,109.92Z"/><text class="cls-4" transform="translate(66.38 102.04)">p<tspan class="cls-5" x="28.38" y="0">r</tspan><tspan class="cls-6" x="46.39" y="0">e</tspan><tspan class="cls-7" x="73.03" y="0">t</tspan><tspan class="cls-8" x="92.17" y="0">t</tspan><tspan x="111.05" y="0">y</tspan><tspan x="0" y="48.21">mu</tspan><tspan class="cls-9" x="70.82" y="48.21">c</tspan><tspan class="cls-10" x="94.22" y="48.21">h</tspan><tspan class="cls-11"><tspan x="0" y="96.42">no</tspan><tspan class="cls-12" x="55.27" y="96.42">mads</tspan></tspan></text></svg>