<svg id="Layer_1" data-name="Layer 1" xmlns="http://www.w3.org/2000/svg" viewBox="0 0 140.13 113.03"><defs><style>.cls-1{fill:#fff;}.cls-2{fill:#71c8b8;}</style></defs><path class="cls-1" d="M47.6,62.59c-17.77-17.9-25.58-47-26-48.6A79.8,79.8,0,0,1,20,6.12a20.16,20.16,0,0,0-.36-2,6,6,0,0,0-.82-2.32A4.39,4.39,0,0,0,16.27.06a3.18,3.18,0,0,0-2.11.36c-5,2.51-9.62,16.5-9.62,16.5C3.84,19.05,3.46,20.21,3,22a84.63,84.63,0,0,0-3,20.3A70.71,70.71,0,0,0,70.71,113c.75,0,1.49,0,2.22,0a56.08,56.08,0,0,0,11.56-.77,64.94,64.94,0,0,0,18.58-6.53,62.88,62.88,0,0,0,8-5.3,71.29,71.29,0,0,0,15.36-14.52c.38-.48,1.12-1.47,1.12-1.47l-.2-.26c-3.87.59-51.32,7.08-79.74-21.55"/><path class="cls-2" d="M139.24,30.88c-.11-.83-.43-2.38-1.07-5.49a23.39,23.39,0,0,0-1-3.65,5.4,5.4,0,0,0-1.34-2.15,3.26,3.26,0,0,0-2.26-1,4,4,0,0,0-2.6,1.2c-.77.69-1.33,2.73-1.78,3.81a57.78,57.78,0,0,1-3.38,6.28,50.83,50.83,0,0,1-8.06,10.42c-3.92,4.17-7.71,8.2-13.31,11.87-9.23,6-18.11,7.54-22.4,8.36a61.39,61.39,0,0,1-30.82-2.2l.38.38c11,11.06,26.38,17.83,45.78,20.13a118.46,118.46,0,0,0,29.18-.16l4.89-.88s.63-1.11.92-1.68a69.82,69.82,0,0,0,7-20.52,89.82,89.82,0,0,0-.1-24.68"/></svg>